# xmcd
#
# Track frame offsets: 
#        150
#        22577
#        45165
#        70095
#        93840
#        114612
#        135935
#        161085
#        178682
#        194637
#        226060
#        247502
#
# Disc length: 3489 seconds
#
# Revision: 3
# Processed by: cddbd v1.4PL0 Copyright (c) Steve Scherf et al.
# Submitted via: ExactAudioCopy v0.90b4
#
DISCID=830d9f0c
DTITLE=Joe Ely - Twistin' In the Wind
DYEAR=1900
DGENRE=Country
TTITLE0=Up On The Ridge
TTITLE1=Roll Again
TTITLE2=It's A Little Like Love
TTITLE3=Twistin' In The Wind
TTITLE4=Queen Of Heaven
TTITLE5=Sister Soak The Beans
TTITLE6=I Will Lose My Life
TTITLE7=You're Workin' For The Man
TTITLE8=Nacho Mama
TTITLE9=Behind The Bamboo Shade
TTITLE10=Gulf Coast Blues
TTITLE11=If I Could Teach My Chihuahua To Sing
EXTD=LABEL =MCA Records Nashville\nID =MCAD-70031\nUPC =008817-0031
EXTD=22\nCOPYRIGHT =1998
EXTT0=
EXTT1=
EXTT2=
EXTT3=
EXTT4=
EXTT5=
EXTT6=
EXTT7=
EXTT8=
EXTT9=
EXTT10=
EXTT11=
PLAYORDER=
